<svg width="80" height="80" viewBox="0 0 80 80" fill="none" xmlns="http://www.w3.org/2000/svg">
<g clip-path="url(#clip0_125_162)">
<path d="M40 80C62.0914 80 80 62.0914 80 40C80 17.9086 62.0914 0 40 0C17.9086 0 0 17.9086 0 40C0 62.0914 17.9086 80 40 80Z" fill="url(#paint0_linear_125_162)"/>
<g filter="url(#filter0_d_125_162)">
<mask id="mask0_125_162" style="mask-type:luminance" maskUnits="userSpaceOnUse" x="28" y="27" width="25" height="25">
<path d="M53 27H28V52H53V27Z" fill="white"/>
</mask>
<g mask="url(#mask0_125_162)">
<path d="M28 46.79V48.875C28 50.5986 32.1992 52 37.375 52C42.5508 52 46.75 50.5986 46.75 48.875V46.79C44.7334 48.2109 41.0469 48.875 37.375 48.875C33.7031 48.875 30.0166 48.2109 28 46.79ZM43.625 33.25C48.8008 33.25 53 31.8486 53 30.125C53 28.4014 48.8008 27 43.625 27C38.4492 27 34.25 28.4014 34.25 30.125C34.25 31.8486 38.4492 33.25 43.625 33.25ZM28 41.668V44.1875C28 45.9111 32.1992 47.3125 37.375 47.3125C42.5508 47.3125 46.75 45.9111 46.75 44.1875V41.668C44.7334 43.3281 41.042 44.1875 37.375 44.1875C33.708 44.1875 30.0166 43.3281 28 41.668ZM48.3125 42.2051C51.1104 41.6631 53 40.6572 53 39.5V37.415C51.8672 38.2158 50.2021 38.7627 48.3125 39.0996V42.2051ZM37.375 34.8125C32.1992 34.8125 28 36.5605 28 38.7188C28 40.877 32.1992 42.625 37.375 42.625C42.5508 42.625 46.75 40.877 46.75 38.7188C46.75 36.5605 42.5508 34.8125 37.375 34.8125ZM48.083 37.5615C51.0127 37.0342 53 35.999 53 34.8125V32.7275C51.2666 33.9531 48.2881 34.6123 45.1533 34.7686C46.5937 35.4668 47.6533 36.4043 48.083 37.5615Z" fill="white"/>
</g>
</g>
</g>
<defs>
<filter id="filter0_d_125_162" x="24" y="27" width="33" height="33" filterUnits="userSpaceOnUse" color-interpolation-filters="sRGB">
<feFlood flood-opacity="0" result="BackgroundImageFix"/>
<feColorMatrix in="SourceAlpha" type="matrix" values="0 0 0 0 0 0 0 0 0 0 0 0 0 0 0 0 0 0 127 0" result="hardAlpha"/>
<feOffset dy="4"/>
<feGaussianBlur stdDeviation="2"/>
<feComposite in2="hardAlpha" operator="out"/>
<feColorMatrix type="matrix" values="0 0 0 0 0 0 0 0 0 0 0 0 0 0 0 0 0 0 1 0"/>
<feBlend mode="normal" in2="BackgroundImageFix" result="effect1_dropShadow_125_162"/>
<feBlend mode="normal" in="SourceGraphic" in2="effect1_dropShadow_125_162" result="shape"/>
</filter>
<linearGradient id="paint0_linear_125_162" x1="40" y1="0" x2="40" y2="80" gradientUnits="userSpaceOnUse">
<stop stop-color="#C04FF6"/>
<stop offset="0.52" stop-color="#C04FF6"/>
<stop offset="0.98" stop-color="#C04FF6"/>
</linearGradient>
<clipPath id="clip0_125_162">
<rect width="80" height="80" fill="white"/>
</clipPath>
</defs>
</svg>
