<svg width="133" height="132" viewBox="0 0 133 132" fill="none" xmlns="http://www.w3.org/2000/svg">
<path d="M126.451 49.0911C126.305 114.55 1.12856 114.542 1 49.0911C1.1457 -16.368 126.322 -16.3594 126.451 49.0911Z" fill="#C6F432"/>
<path d="M32.6091 20.9504C21.2699 20.9504 12.082 30.1281 12.082 41.4546C16.256 101.751 111.22 101.683 115.36 41.4546C115.36 30.1281 106.172 20.9504 94.833 20.9504H32.6091Z" fill="black"/>
<path d="M92.3732 57.6695H35.0774C26.9352 57.6695 20.3357 51.0774 20.3357 42.9442C20.3357 34.811 26.9352 28.2189 35.0774 28.2189H92.3732C100.515 28.2189 107.115 34.811 107.115 42.9442C107.115 51.0774 100.515 57.6695 92.3732 57.6695Z" fill="#C6F432"/>
<g style="mix-blend-mode:multiply">
<path d="M68.4778 71.5729C64.021 71.2219 53.4704 73.5762 53.6246 66.2307C53.6246 65.1776 54.4731 64.3301 55.5273 64.3301H71.9233C72.9775 64.3301 73.826 65.1776 73.826 66.2307C73.826 69.1843 71.4347 71.5729 68.4778 71.5729Z" fill="#C6F432"/>
</g>
<path d="M47.8565 48.2265H37.2116C33.9033 48.2864 34.6575 43.9288 34.6061 41.8227C34.6061 40.3844 35.7717 39.2201 37.2116 39.2201H47.8565C51.1648 39.1602 50.4106 43.5178 50.462 45.6239C50.462 47.0622 49.2964 48.2265 47.8565 48.2265Z" fill="#010101"/>
<path d="M90.2305 48.2265H79.5941C76.2858 48.2864 77.04 43.9288 76.9886 41.8227C76.9886 40.3844 78.1542 39.2201 79.5941 39.2201H90.2305C93.5388 39.1602 92.7846 43.5178 92.836 45.6239C92.836 47.0622 91.6704 48.2265 90.2305 48.2265Z" fill="#010101"/>
<g filter="url(#filter0_di_129_179)">
<path d="M19.1093 116.85H24.5393C24.7593 116.85 24.9493 116.93 25.1093 117.09C25.2693 117.25 25.3493 117.44 25.3493 117.66V122.19C25.3493 122.41 25.2693 122.6 25.1093 122.76C24.9493 122.92 24.7593 123 24.5393 123H5.5193C5.2993 123 5.1093 122.92 4.9493 122.76C4.7893 122.6 4.7093 122.41 4.7093 122.19V117.66C4.7093 117.44 4.7893 117.25 4.9493 117.09C5.1093 116.93 5.2993 116.85 5.5193 116.85H11.0093V108.15H5.5193C5.2993 108.15 5.1093 108.07 4.9493 107.91C4.7893 107.75 4.7093 107.56 4.7093 107.34V102.81C4.7093 102.59 4.7893 102.4 4.9493 102.24C5.1093 102.08 5.2993 102 5.5193 102H24.5393C24.7593 102 24.9493 102.08 25.1093 102.24C25.2693 102.4 25.3493 102.59 25.3493 102.81V107.34C25.3493 107.56 25.2693 107.75 25.1093 107.91C24.9493 108.07 24.7593 108.15 24.5393 108.15H19.1093V116.85ZM51.6776 114.33C51.6776 117.39 50.6576 119.65 48.6176 121.11C46.5976 122.57 43.8976 123.3 40.5176 123.3C37.1376 123.3 34.4276 122.57 32.3876 121.11C30.3676 119.65 29.3576 117.37 29.3576 114.27V110.73C29.3576 108.69 29.8376 107 30.7976 105.66C31.7776 104.3 33.1076 103.3 34.7876 102.66C36.4676 102.02 38.3776 101.7 40.5176 101.7C42.6576 101.7 44.5576 102.02 46.2176 102.66C47.8976 103.3 49.2276 104.29 50.2076 105.63C51.1876 106.97 51.6776 108.65 51.6776 110.67V114.33ZM37.4576 114.9C37.4576 115.72 37.7276 116.35 38.2676 116.79C38.8276 117.23 39.5776 117.45 40.5176 117.45C41.4576 117.45 42.1976 117.23 42.7376 116.79C43.2976 116.33 43.5776 115.69 43.5776 114.87V110.13C43.5776 109.31 43.2976 108.68 42.7376 108.24C42.1976 107.78 41.4576 107.55 40.5176 107.55C39.5776 107.55 38.8276 107.77 38.2676 108.21C37.7276 108.65 37.4576 109.28 37.4576 110.1V114.9ZM74.5859 112.05C75.3659 112.29 76.0359 112.82 76.5959 113.64C77.1559 114.44 77.4359 115.36 77.4359 116.4C77.4359 118.62 76.7159 120.28 75.2759 121.38C73.8359 122.46 71.7359 123 68.9759 123H56.6159C56.3959 123 56.2059 122.92 56.0459 122.76C55.8859 122.6 55.8059 122.41 55.8059 122.19V102.81C55.8059 102.59 55.8859 102.4 56.0459 102.24C56.2059 102.08 56.3959 102 56.6159 102H68.6759C71.5159 102 73.6059 102.52 74.9459 103.56C76.3059 104.58 76.9859 106.13 76.9859 108.21V108.3C76.9859 109.26 76.7259 110.08 76.2059 110.76C75.6859 111.44 75.1459 111.87 74.5859 112.05ZM68.8559 108.48C68.8559 108.12 68.7459 107.81 68.5259 107.55C68.3259 107.29 68.0259 107.16 67.6259 107.16H63.6059V109.89H67.6259C68.0259 109.89 68.3259 109.75 68.5259 109.47C68.7459 109.17 68.8559 108.84 68.8559 108.48ZM67.9559 117.84C68.4159 117.84 68.7559 117.69 68.9759 117.39C69.2159 117.07 69.3359 116.72 69.3359 116.34V116.31C69.3359 115.93 69.2059 115.6 68.9459 115.32C68.7059 115.04 68.3759 114.9 67.9559 114.9H63.6059V117.84H67.9559ZM102.654 114.33C102.654 117.39 101.634 119.65 99.5941 121.11C97.5741 122.57 94.8741 123.3 91.4941 123.3C88.1141 123.3 85.4041 122.57 83.3641 121.11C81.3441 119.65 80.3341 117.37 80.3341 114.27V110.73C80.3341 108.69 80.8141 107 81.7741 105.66C82.7541 104.3 84.0841 103.3 85.7641 102.66C87.4441 102.02 89.3541 101.7 91.4941 101.7C93.6341 101.7 95.5341 102.02 97.1941 102.66C98.8741 103.3 100.204 104.29 101.184 105.63C102.164 106.97 102.654 108.65 102.654 110.67V114.33ZM88.4341 114.9C88.4341 115.72 88.7041 116.35 89.2441 116.79C89.8041 117.23 90.5541 117.45 91.4941 117.45C92.4341 117.45 93.1741 117.23 93.7141 116.79C94.2741 116.33 94.5541 115.69 94.5541 114.87V110.13C94.5541 109.31 94.2741 108.68 93.7141 108.24C93.1741 107.78 92.4341 107.55 91.4941 107.55C90.5541 107.55 89.8041 107.77 89.2441 108.21C88.7041 108.65 88.4341 109.28 88.4341 110.1V114.9ZM127.332 102C127.552 102 127.742 102.08 127.902 102.24C128.062 102.4 128.142 102.59 128.142 102.81V107.64C128.142 107.86 128.062 108.05 127.902 108.21C127.742 108.37 127.552 108.45 127.332 108.45H120.882V122.19C120.882 122.41 120.802 122.6 120.642 122.76C120.482 122.92 120.292 123 120.072 123H113.892C113.672 123 113.482 122.92 113.322 122.76C113.162 122.6 113.082 122.41 113.082 122.19V108.45H106.632C106.412 108.45 106.222 108.37 106.062 108.21C105.902 108.05 105.822 107.86 105.822 107.64V102.81C105.822 102.59 105.902 102.4 106.062 102.24C106.222 102.08 106.412 102 106.632 102H127.332Z" fill="#C04FF6"/>
</g>
<defs>
<filter id="filter0_di_129_179" x="0.70929" y="101.7" width="131.433" height="29.6001" filterUnits="userSpaceOnUse" color-interpolation-filters="sRGB">
<feFlood flood-opacity="0" result="BackgroundImageFix"/>
<feColorMatrix in="SourceAlpha" type="matrix" values="0 0 0 0 0 0 0 0 0 0 0 0 0 0 0 0 0 0 127 0" result="hardAlpha"/>
<feOffset dy="4"/>
<feGaussianBlur stdDeviation="2"/>
<feComposite in2="hardAlpha" operator="out"/>
<feColorMatrix type="matrix" values="0 0 0 0 0 0 0 0 0 0 0 0 0 0 0 0 0 0 0.25 0"/>
<feBlend mode="normal" in2="BackgroundImageFix" result="effect1_dropShadow_129_179"/>
<feBlend mode="normal" in="SourceGraphic" in2="effect1_dropShadow_129_179" result="shape"/>
<feColorMatrix in="SourceAlpha" type="matrix" values="0 0 0 0 0 0 0 0 0 0 0 0 0 0 0 0 0 0 127 0" result="hardAlpha"/>
<feOffset dx="2" dy="1"/>
<feGaussianBlur stdDeviation="0.5"/>
<feComposite in2="hardAlpha" operator="arithmetic" k2="-1" k3="1"/>
<feColorMatrix type="matrix" values="0 0 0 0 0 0 0 0 0 0 0 0 0 0 0 0 0 0 0.5 0"/>
<feBlend mode="normal" in2="shape" result="effect2_innerShadow_129_179"/>
</filter>
</defs>
</svg>
